<svg width="66" height="35" viewBox="0 0 66 35" fill="none" xmlns="http://www.w3.org/2000/svg">
<rect width="65" height="35" rx="8" fill="#F8F9FA"/>
<rect x="0.5" y="0.5" width="64" height="34" rx="7.5" stroke="black" stroke-opacity="0.4"/>
<path d="M16.0568 22V13.2727H19.108C19.7159 13.2727 20.2173 13.3778 20.6122 13.5881C21.0071 13.7955 21.3011 14.0753 21.4943 14.4276C21.6875 14.777 21.7841 15.1648 21.7841 15.5909C21.7841 15.9659 21.7173 16.2756 21.5838 16.5199C21.4531 16.7642 21.2798 16.9574 21.0639 17.0994C20.8509 17.2415 20.6193 17.3466 20.3693 17.4148V17.5C20.6364 17.517 20.9048 17.6108 21.1747 17.7812C21.4446 17.9517 21.6705 18.196 21.8523 18.5142C22.0341 18.8324 22.125 19.2216 22.125 19.6818C22.125 20.1193 22.0256 20.5128 21.8267 20.8622C21.6278 21.2116 21.3139 21.4886 20.8849 21.6932C20.456 21.8977 19.8977 22 19.2102 22H16.0568ZM17.1136 21.0625H19.2102C19.9006 21.0625 20.3906 20.929 20.6804 20.6619C20.973 20.392 21.1193 20.0653 21.1193 19.6818C21.1193 19.3864 21.044 19.1136 20.8935 18.8636C20.7429 18.6108 20.5284 18.4091 20.25 18.2585C19.9716 18.1051 19.642 18.0284 19.2614 18.0284H17.1136V21.0625ZM17.1136 17.108H19.0739C19.392 17.108 19.679 17.0455 19.9347 16.9205C20.1932 16.7955 20.3977 16.6193 20.5483 16.392C20.7017 16.1648 20.7784 15.8977 20.7784 15.5909C20.7784 15.2074 20.6449 14.8821 20.3778 14.6151C20.1108 14.3452 19.6875 14.2102 19.108 14.2102H17.1136V17.108ZM26.3842 22.1364C25.7933 22.1364 25.2749 21.9957 24.8288 21.7145C24.3857 21.4332 24.0391 21.0398 23.7891 20.5341C23.5419 20.0284 23.4183 19.4375 23.4183 18.7614C23.4183 18.0795 23.5419 17.4844 23.7891 16.9759C24.0391 16.4673 24.3857 16.0724 24.8288 15.7912C25.2749 15.5099 25.7933 15.3693 26.3842 15.3693C26.9751 15.3693 27.4922 15.5099 27.9354 15.7912C28.3814 16.0724 28.728 16.4673 28.9751 16.9759C29.2251 17.4844 29.3501 18.0795 29.3501 18.7614C29.3501 19.4375 29.2251 20.0284 28.9751 20.5341C28.728 21.0398 28.3814 21.4332 27.9354 21.7145C27.4922 21.9957 26.9751 22.1364 26.3842 22.1364ZM26.3842 21.233C26.8331 21.233 27.2024 21.1179 27.4922 20.8878C27.782 20.6577 27.9964 20.3551 28.1357 19.9801C28.2749 19.6051 28.3445 19.1989 28.3445 18.7614C28.3445 18.3239 28.2749 17.9162 28.1357 17.5384C27.9964 17.1605 27.782 16.8551 27.4922 16.6222C27.2024 16.3892 26.8331 16.2727 26.3842 16.2727C25.9354 16.2727 25.5661 16.3892 25.2763 16.6222C24.9865 16.8551 24.772 17.1605 24.6328 17.5384C24.4936 17.9162 24.424 18.3239 24.424 18.7614C24.424 19.1989 24.4936 19.6051 24.6328 19.9801C24.772 20.3551 24.9865 20.6577 25.2763 20.8878C25.5661 21.1179 25.9354 21.233 26.3842 21.233ZM31.891 20.517L35.0444 15.4545H36.2035V22H35.1978V16.9375L32.0614 22H30.8853V15.4545H31.891V20.517ZM34.3796 13.2727H35.3171C35.3171 13.733 35.158 14.1094 34.8398 14.402C34.5217 14.6946 34.0898 14.8409 33.5444 14.8409C33.0075 14.8409 32.5799 14.6946 32.2617 14.402C31.9464 14.1094 31.7887 13.733 31.7887 13.2727H32.7262C32.7262 13.4943 32.7873 13.6889 32.9094 13.8565C33.0344 14.0241 33.2461 14.108 33.5444 14.108C33.8427 14.108 34.0558 14.0241 34.1836 13.8565C34.3143 13.6889 34.3796 13.4943 34.3796 13.2727ZM37.1548 16.392V15.4545H42.473V16.392H40.3253V22H39.3196V16.392H37.1548ZM44.9457 20.517L48.0991 15.4545H49.2582V22H48.2525V16.9375L45.1161 22H43.94V15.4545H44.9457V20.517Z" fill="black"/>
</svg>
